<svg
  xmlns="http://www.w3.org/2000/svg"
  viewBox="0 0 24 24"
  fill="none"
>
  <path
    fill="#0EA5E9"
    d="m12.279 3 1.03 2.684s-3.92 5.308-4.433 6.216c-.514.907-1.85 1.522-1.85 1.522l-.748 1.465 1.229 1.253.766-.782q.512-1.332 1.183-2.589c.544-.92 4.408-6.255 4.408-6.255l3.086.62.607 3.148s-5.204 3.916-6.132 4.497q-1.23.69-2.538 1.206l-.766.782L9.329 18l1.509-.798s.595-1.356 1.48-1.876 6.057-4.485 6.057-4.485L21 11.896l-.718 2.522s-5.952 2.59-6.853 3.082q-1.205.47-2.457.793L7.937 20.07l.32.326-1.1 1.12-.041-.041a2.88 2.88 0 0 1-3.703-.327l-.82-.837c-.994-1.014-.623-2.117.268-3.175l-.015-.016.423-.43.676-.69.299.303 1.704-3.015a9.8 9.8 0 0 1 .79-2.517c.514-.908 3.057-7.026 3.057-7.026zM5.865 15.69l-.762 1.492.997 1.017-.308-.314 1.112-1.134zm1.655 1.688-1.113 1.136.665.678 1.465-.775z"
  />
</svg>